<?xml version="1.0" encoding="UTF-8"?>
<svg xmlns="http://www.w3.org/2000/svg" xmlns:xlink="http://www.w3.org/1999/xlink" viewBox="0 0 48 48" width="48px" height="48px">
<g id="surface74392833">
<rect x="0" y="0" width="48" height="48" style="fill:rgb(20%,20%,20%);fill-opacity:1;stroke:none;"/>
<path style=" stroke:none;fill-rule:nonzero;fill:rgb(100%,100%,100%);fill-opacity:1;" d="M 44.71875 10.304688 C 44.425781 10 43.96875 9.914062 43.582031 10.089844 L 43.417969 10.164062 C 43.28125 10.230469 43.140625 10.292969 43 10.355469 C 43.40625 9.707031 43.730469 9.015625 43.953125 8.296875 C 44.078125 7.898438 43.941406 7.46875 43.613281 7.210938 C 43.285156 6.953125 42.835938 6.929688 42.480469 7.144531 C 41.339844 7.839844 40.242188 8.335938 39.109375 8.683594 C 37.398438 7.027344 35.070312 6 32.5 6 C 27.253906 6 23 10.253906 23 15.5 C 23 15.503906 23 15.703125 23 16 L 22 15.921875 C 12.277344 14.769531 9.511719 8.230469 9.394531 7.949219 C 9.210938 7.476562 8.800781 7.136719 8.304688 7.03125 C 7.808594 6.925781 7.296875 7.082031 6.9375 7.4375 C 6.742188 7.636719 5 9.480469 5 13 C 5 15.507812 6.117188 17.542969 7.566406 19.125 C 6.890625 18.714844 6.496094 18.378906 6.488281 18.371094 C 6.027344 17.96875 5.367188 17.886719 4.820312 18.164062 C 4.273438 18.441406 3.949219 19.023438 4.007812 19.636719 C 4.023438 19.847656 4.449219 23.847656 9.074219 26.871094 L 8.230469 27.023438 C 7.71875 27.117188 7.292969 27.46875 7.101562 27.953125 C 6.914062 28.4375 6.988281 28.984375 7.300781 29.398438 C 7.40625 29.539062 9.359375 32.078125 13.597656 33.539062 C 11.335938 34.296875 8.222656 35 4.5 35 C 3.910156 35 3.378906 35.34375 3.132812 35.878906 C 2.890625 36.414062 2.984375 37.046875 3.371094 37.488281 C 3.53125 37.671875 7.433594 42 17.5 42 C 34.214844 42 42 26.484375 42 16 L 42 15.5 C 42 15.351562 41.984375 15.207031 41.976562 15.0625 C 44.070312 13.039062 44.855469 11.523438 44.894531 11.445312 C 45.085938 11.066406 45.015625 10.609375 44.71875 10.304688 Z M 44.71875 10.304688 "/>
</g>
</svg>
